# xmcd
#
# Track frame offsets:
#	150
#	17374
#	29523
#	43324
#	53696
#	67120
#	81398
#	91383
#	107774
#	119360
#	136985
#	151123
#	167853
#
# Disc length: 2413 seconds
#
# Revision: 0
# Processed by: cddbd v1.5.2PL0 Copyright (c) Steve Scherf et al.
# Submitted via: audiograbber 1.83.01
#
DISCID=ab096b0d
DTITLE=The Sempf Family - Sweet Memories
DYEAR=2012
DGENRE=Country
TTITLE0=Sunflower Mornings (Kate)
TTITLE1=Dance With Me (Conney)
TTITLE2=It's Out Of Our Hands (Amanda)
TTITLE3=Swollow Your Sorrow (Trudy)
TTITLE4=It's Not Meant To Be (Amanda)
TTITLE5=Tiny Toy Piano (Kate)
TTITLE6=Spiders In My Gumboots (Conney)
TTITLE7=A Butterfly (Amanda)
TTITLE8=Sweet Memories (Trudy)
TTITLE9=Throw Away World (Kate)
TTITLE10=Little Hearts Get Broken (Amanda)
TTITLE11=Box Of Cotton (Kate)
TTITLE12=Life Must Go On (Amanda)
EXTD=
EXTT0=
EXTT1=
EXTT2=
EXTT3=
EXTT4=
EXTT5=
EXTT6=
EXTT7=
EXTT8=
EXTT9=
EXTT10=
EXTT11=
EXTT12=
PLAYORDER=
